<svg width="20" height="31" viewBox="0 0 20 31" fill="none" xmlns="http://www.w3.org/2000/svg">
<path d="M20 8.98935C20 13.954 11.8277 30.8498 11.0107 30.8498C10.1936 30.8498 2.0213 13.954 2.0213 8.98935C2.0213 4.02467 6.04597 0 11.0107 0C15.9753 0 20 4.02467 20 8.98935Z" fill="#FECE2F"/>
<path d="M17.4651 8.98935C17.4651 10.1353 16.983 12.0481 16.2029 14.3336C15.4305 16.5969 14.3897 19.1596 13.3208 21.5734C12.2521 23.9869 11.1592 26.2428 10.2849 27.8917C9.84693 28.7176 9.46818 29.3829 9.1775 29.8374C9.10778 29.9464 9.04502 30.0403 8.98935 30.1196C8.93368 30.0403 8.87092 29.9464 8.8012 29.8374C8.51052 29.3829 8.13177 28.7176 7.69384 27.8917C6.81951 26.2428 5.72661 23.9869 4.65791 21.5734C3.58905 19.1596 2.54824 16.5969 1.77576 14.3336C0.995681 12.0481 0.513598 10.1353 0.513598 8.98935C0.513598 4.30832 4.30832 0.513598 8.98935 0.513598C13.6704 0.513598 17.4651 4.30832 17.4651 8.98935Z" stroke="black" stroke-width="1.0272"/>
<ellipse cx="8.78497" cy="8.78496" rx="3.47316" ry="3.47316" fill="#1E1E1E"/>
</svg>
