<svg width="21" height="32" viewBox="0 0 21 32" fill="none" xmlns="http://www.w3.org/2000/svg">
<path d="M20.8358 9.63828C20.8358 14.603 12.6635 31.4988 11.8464 31.4988C11.0294 31.4988 2.85709 14.603 2.85709 9.63828C2.85709 4.6736 6.88175 0.648926 11.8464 0.648926C16.8111 0.648926 20.8358 4.6736 20.8358 9.63828Z" fill="#593C8F"/>
<path d="M18.3009 9.63828C18.3009 10.7842 17.8188 12.697 17.0387 14.9826C16.2662 17.2458 15.2254 19.8085 14.1566 22.2223C13.0879 24.6358 11.995 26.8917 11.1206 28.5406C10.6827 29.3665 10.304 30.0318 10.0133 30.4864C9.94357 30.5954 9.8808 30.6893 9.82514 30.7685C9.76947 30.6893 9.7067 30.5954 9.63698 30.4864C9.34631 30.0318 8.96756 29.3665 8.52962 28.5406C7.6553 26.8917 6.5624 24.6358 5.49369 22.2223C4.42483 19.8085 3.38403 17.2458 2.61154 14.9826C1.83147 12.697 1.34938 10.7842 1.34938 9.63828C1.34938 4.95725 5.14411 1.16252 9.82513 1.16252C14.5062 1.16252 18.3009 4.95725 18.3009 9.63828Z" stroke="black" stroke-width="1.0272"/>
<ellipse cx="9.62074" cy="9.43388" rx="3.47316" ry="3.47316" fill="#1E1E1E"/>
</svg>
