<svg width="360" height="107" viewBox="0 0 360 107" fill="none" xmlns="http://www.w3.org/2000/svg">
<path d="M0.766833 98.1405L0.766837 66.9747L3.38877 66.9747C3.96013 66.9747 4.35591 66.598 4.51986 66.2042C4.68131 65.8165 4.67017 65.3009 4.3383 64.8933C3.468 63.8245 2.9468 62.4621 2.9468 60.9759C2.9468 57.5467 5.72669 54.7669 9.15586 54.7669C12.585 54.7669 15.3649 57.5467 15.3649 60.9759C15.3649 62.4621 14.8437 63.8245 13.9734 64.8933C13.6415 65.3009 13.6304 65.8165 13.7918 66.2042C13.9558 66.598 14.3516 66.9747 14.9229 66.9747L18.0894 66.9747C17.1974 68.2364 16.6729 69.7777 16.6729 71.4397C16.6729 75.7159 20.1394 79.1825 24.4156 79.1825C28.0494 79.1825 31.0985 76.6792 31.9326 73.3031L31.9326 98.1405L0.766833 98.1405ZM31.9326 66.9747L31.9326 69.577C31.6983 68.6288 31.2893 67.7491 30.7419 66.9747L31.9326 66.9747Z" fill="black" stroke="black" stroke-width="1.53367"/>
<path d="M31.9329 9.76683L31.9329 40.9326L29.3109 40.9326C28.7396 40.9326 28.3438 41.3093 28.1798 41.7031C28.0184 42.0908 28.0295 42.6064 28.3614 43.014C29.2317 44.0828 29.7529 45.4452 29.7529 46.9314C29.7529 50.3605 26.973 53.1404 23.5439 53.1404C20.1147 53.1404 17.3348 50.3605 17.3348 46.9314C17.3348 45.4452 17.856 44.0828 18.7263 43.014C19.0582 42.6064 19.0693 42.0908 18.9079 41.7031C18.7439 41.3093 18.3481 40.9326 17.7768 40.9326L14.6104 40.9326C15.5023 39.6709 16.0268 38.1296 16.0268 36.4675C16.0268 32.1914 12.5603 28.7248 8.2841 28.7248C4.65031 28.7248 1.60118 31.2281 0.76707 34.6042L0.767073 9.76683L31.9329 9.76683ZM0.767069 40.9326L0.76707 38.3302C1.00136 39.2785 1.41039 40.1582 1.95784 40.9326L0.767069 40.9326Z" fill="black" stroke="black" stroke-width="1.53367"/>
<path d="M98.875 7.75V33.1875C98.875 36.8125 98.0208 39.9375 96.3125 42.5625C94.6042 45.1875 92.3125 47.2083 89.4375 48.625C86.6042 50 83.4375 50.6875 79.9375 50.6875C76.4792 50.6875 73.3125 50 70.4375 48.625C67.5625 47.2083 65.2708 45.1875 63.5625 42.5625C61.8542 39.9375 61 36.8125 61 33.1875V7.75H72.6875V32.375C72.6875 34.5417 73.2708 36.3333 74.4375 37.75C75.6042 39.125 77.4375 39.7917 79.9375 39.75C82.4375 39.7083 84.2708 39.0208 85.4375 37.6875C86.6042 36.3125 87.1875 34.5417 87.1875 32.375V7.75H98.875Z" fill="black"/>
<path d="M119 17.875V22C120 20.625 121.208 19.4375 122.625 18.4375C124.083 17.4375 125.875 16.9375 128 16.9375C131.25 16.9375 133.896 18.0417 135.938 20.25C138.021 22.4583 139.062 25.7292 139.062 30.0625V49.75H128.312L128.25 31.75C128.25 30.1667 127.812 29.0625 126.938 28.4375C126.062 27.7708 125.083 27.4375 124 27.4375C122.833 27.4375 121.854 27.75 121.062 28.375C120.271 28.9583 119.583 29.6667 119 30.5V49.75H108.25V17.875H119Z" fill="black"/>
<path d="M155.812 0C157.021 0 158.125 0.291667 159.125 0.875C160.167 1.45833 161 2.25 161.625 3.25C162.25 4.20833 162.562 5.29167 162.562 6.5C162.562 7.66667 162.25 8.75 161.625 9.75C161 10.75 160.167 11.5417 159.125 12.125C158.125 12.7083 157.021 13 155.812 13C154.021 13 152.458 12.375 151.125 11.125C149.792 9.83333 149.125 8.29167 149.125 6.5C149.125 4.66667 149.792 3.125 151.125 1.875C152.458 0.625 154.021 0 155.812 0ZM161.875 17.875V49.75H151.125V26.625H145.938V17.875H161.875Z" fill="black"/>
<path d="M184.938 8.5V17.875H193.312V26.3125H184.938V35.25C184.938 36.7917 185.25 38.0208 185.875 38.9375C186.542 39.8125 187.458 40.25 188.625 40.25C190.458 40.25 192.146 39.7917 193.688 38.875V47.25C193.021 48.1667 191.958 48.9792 190.5 49.6875C189.083 50.3542 187.333 50.6875 185.25 50.6875C183.25 50.6875 181.417 50.2292 179.75 49.3125C178.083 48.3958 176.729 47.0833 175.688 45.375C174.688 43.6667 174.188 41.6042 174.188 39.1875V26.3125H168.812V19.75C170.854 19.2083 172.854 18.0417 174.812 16.25C176.812 14.4167 178.271 11.8333 179.188 8.5H184.938Z" fill="black"/>
<path d="M78.9375 63.875C81.0625 63.875 83.125 64.2292 85.125 64.9375C87.1667 65.6458 89 66.6875 90.625 68.0625C92.25 69.4375 93.5417 71.1042 94.5 73.0625C95.5 75.0208 96 77.2292 96 79.6875C96 82.8958 95.25 85.6667 93.75 88C92.25 90.2917 90.2917 92.0417 87.875 93.25C85.4583 94.4583 82.8958 95.0625 80.1875 95.0625C78.6042 95.0625 77.1875 94.9167 75.9375 94.625C74.6875 94.2917 73.6042 93.875 72.6875 93.375V105.75H61V63.875H78.9375ZM72.6875 74.8125V84.5C73.3958 84.75 74.1458 84.9583 74.9375 85.125C75.7708 85.2917 76.6458 85.375 77.5625 85.375C79.3958 85.375 80.9167 84.8125 82.125 83.6875C83.375 82.5208 84 81.1875 84 79.6875C84 77.9792 83.375 76.75 82.125 76C80.9167 75.2083 79.3958 74.8125 77.5625 74.8125H72.6875Z" fill="black"/>
<path d="M118.522 72.9375C120.731 72.9375 122.877 73.3542 124.96 74.1875C127.043 75.0208 128.918 76.1875 130.585 77.6875C132.252 79.1875 133.564 80.9792 134.522 83.0625C135.522 85.1042 136.022 87.3542 136.022 89.8125C136.022 92.2708 135.522 94.5417 134.522 96.625C133.564 98.6667 132.252 100.438 130.585 101.938C128.918 103.438 127.043 104.604 124.96 105.438C122.877 106.271 120.731 106.688 118.522 106.688C116.314 106.688 114.168 106.271 112.085 105.438C110.002 104.604 108.127 103.438 106.46 101.938C104.793 100.438 103.46 98.6667 102.46 96.625C101.502 94.5417 101.022 92.2708 101.022 89.8125C101.022 87.3542 101.502 85.1042 102.46 83.0625C103.46 80.9792 104.793 79.1875 106.46 77.6875C108.127 76.1875 110.002 75.0208 112.085 74.1875C114.168 73.3542 116.314 72.9375 118.522 72.9375ZM118.522 83.25C117.772 83.25 116.918 83.4167 115.96 83.75C115.043 84.0833 114.252 84.7292 113.585 85.6875C112.918 86.6042 112.585 87.9792 112.585 89.8125C112.585 91.6042 112.918 92.9792 113.585 93.9375C114.252 94.8958 115.043 95.5417 115.96 95.875C116.918 96.2083 117.772 96.375 118.522 96.375C119.314 96.375 120.168 96.2083 121.085 95.875C122.002 95.5417 122.793 94.8958 123.46 93.9375C124.127 92.9792 124.46 91.6042 124.46 89.8125C124.46 87.9792 124.127 86.6042 123.46 85.6875C122.793 84.7292 122.002 84.0833 121.085 83.75C120.168 83.4167 119.314 83.25 118.522 83.25Z" fill="black"/>
<path d="M154.67 72.9375C156.753 72.9375 158.67 73.25 160.42 73.875C162.212 74.4583 163.649 75.2708 164.732 76.3125V84.75C163.649 84.0833 162.42 83.4583 161.045 82.875C159.67 82.25 158.191 81.9375 156.607 81.9375C155.607 81.9375 154.712 82.1458 153.92 82.5625C153.17 82.9375 152.795 83.5417 152.795 84.375C152.795 84.9583 153.024 85.3958 153.482 85.6875C153.941 85.9792 154.837 86.2917 156.17 86.625L158.107 87.125C163.649 88.5417 166.42 91.5208 166.42 96.0625C166.42 98.1458 165.795 100 164.545 101.625C163.337 103.208 161.732 104.458 159.732 105.375C157.774 106.25 155.649 106.688 153.357 106.688C150.982 106.688 148.774 106.354 146.732 105.688C144.691 104.979 142.941 104.125 141.482 103.125V94.75C142.982 95.6667 144.67 96.4375 146.545 97.0625C148.462 97.6875 150.17 98 151.67 98C152.878 98 153.753 97.8542 154.295 97.5625C154.878 97.2708 155.17 96.75 155.17 96C155.17 95.4167 154.837 94.9792 154.17 94.6875C153.503 94.3542 152.545 93.9792 151.295 93.5625L148.107 92.5625C145.774 91.8542 144.066 90.75 142.982 89.25C141.899 87.7083 141.357 85.8333 141.357 83.625C141.357 81.4167 141.941 79.5208 143.107 77.9375C144.274 76.3542 145.857 75.125 147.857 74.25C149.899 73.375 152.17 72.9375 154.67 72.9375Z" fill="black"/>
<path d="M184.13 72.9375C186.213 72.9375 188.13 73.25 189.88 73.875C191.672 74.4583 193.109 75.2708 194.193 76.3125V84.75C193.109 84.0833 191.88 83.4583 190.505 82.875C189.13 82.25 187.651 81.9375 186.068 81.9375C185.068 81.9375 184.172 82.1458 183.38 82.5625C182.63 82.9375 182.255 83.5417 182.255 84.375C182.255 84.9583 182.484 85.3958 182.942 85.6875C183.401 85.9792 184.297 86.2917 185.63 86.625L187.568 87.125C193.109 88.5417 195.88 91.5208 195.88 96.0625C195.88 98.1458 195.255 100 194.005 101.625C192.797 103.208 191.193 104.458 189.193 105.375C187.234 106.25 185.109 106.688 182.817 106.688C180.442 106.688 178.234 106.354 176.192 105.688C174.151 104.979 172.401 104.125 170.942 103.125V94.75C172.442 95.6667 174.13 96.4375 176.005 97.0625C177.922 97.6875 179.63 98 181.13 98C182.338 98 183.213 97.8542 183.755 97.5625C184.338 97.2708 184.63 96.75 184.63 96C184.63 95.4167 184.297 94.9792 183.63 94.6875C182.963 94.3542 182.005 93.9792 180.755 93.5625L177.567 92.5625C175.234 91.8542 173.526 90.75 172.442 89.25C171.359 87.7083 170.817 85.8333 170.817 83.625C170.817 81.4167 171.401 79.5208 172.567 77.9375C173.734 76.3542 175.317 75.125 177.317 74.25C179.359 73.375 181.63 72.9375 184.13 72.9375Z" fill="black"/>
<path d="M238.8 72.9375C240.467 72.9375 242.092 73.3125 243.675 74.0625C245.3 74.7708 246.633 75.6875 247.675 76.8125V73.875H258.425V105.75H247.675V100.438C246.883 102.188 245.675 103.667 244.05 104.875C242.425 106.083 240.467 106.688 238.175 106.688C235.8 106.688 233.571 106.083 231.488 104.875C229.404 103.667 227.696 101.812 226.363 99.3125C225.071 96.7708 224.425 93.5833 224.425 89.75C224.425 86.1667 225.071 83.125 226.363 80.625C227.696 78.125 229.446 76.2292 231.613 74.9375C233.821 73.6042 236.217 72.9375 238.8 72.9375ZM241.05 83.4375C239.508 83.4375 238.217 84.0625 237.175 85.3125C236.175 86.5625 235.675 88.0417 235.675 89.75C235.675 91.4583 236.196 92.8958 237.238 94.0625C238.279 95.2292 239.654 95.8125 241.363 95.8125C242.279 95.8125 243.217 95.5833 244.175 95.125C245.133 94.625 245.946 93.8958 246.613 92.9375C247.321 91.9375 247.675 90.6667 247.675 89.125V86.0625C246.758 85.3125 245.717 84.6875 244.55 84.1875C243.425 83.6875 242.258 83.4375 241.05 83.4375Z" fill="black"/>
<path d="M278.885 73.875V78C279.885 76.625 280.947 75.4375 282.072 74.4375C283.197 73.4375 284.822 72.9375 286.947 72.9375C289.072 72.9375 290.968 73.4375 292.635 74.4375C294.302 75.3958 295.614 76.8333 296.572 78.75C297.572 77.0833 298.885 75.7083 300.51 74.625C302.177 73.5 304.031 72.9375 306.072 72.9375C309.322 72.9375 311.968 74.0417 314.01 76.25C316.093 78.4583 317.135 81.7292 317.135 86.0625V105.75H306.385L306.322 87.75C306.322 86.1667 305.906 85.0625 305.072 84.4375C304.281 83.7708 303.343 83.4375 302.26 83.4375C301.302 83.4375 300.468 83.7292 299.76 84.3125C299.093 84.8958 298.51 85.5625 298.01 86.3125V105.75H287.26L287.197 87.75C287.197 86.1667 286.781 85.0625 285.947 84.4375C285.156 83.7708 284.218 83.4375 283.135 83.4375C282.177 83.4375 281.364 83.75 280.697 84.375C280.072 84.9583 279.468 85.6667 278.885 86.5V105.75H268.135V73.875H278.885Z" fill="black"/>
<path d="M341.845 72.9375C344.053 72.9375 346.199 73.3542 348.283 74.1875C350.366 75.0208 352.241 76.1875 353.908 77.6875C355.574 79.1875 356.887 80.9792 357.845 83.0625C358.845 85.1042 359.345 87.3542 359.345 89.8125C359.345 92.2708 358.845 94.5417 357.845 96.625C356.887 98.6667 355.574 100.438 353.908 101.938C352.241 103.438 350.366 104.604 348.283 105.438C346.199 106.271 344.053 106.688 341.845 106.688C339.637 106.688 337.491 106.271 335.408 105.438C333.324 104.604 331.449 103.438 329.783 101.938C328.116 100.438 326.783 98.6667 325.783 96.625C324.824 94.5417 324.345 92.2708 324.345 89.8125C324.345 87.3542 324.824 85.1042 325.783 83.0625C326.783 80.9792 328.116 79.1875 329.783 77.6875C331.449 76.1875 333.324 75.0208 335.408 74.1875C337.491 73.3542 339.637 72.9375 341.845 72.9375ZM341.845 83.25C341.095 83.25 340.241 83.4167 339.283 83.75C338.366 84.0833 337.574 84.7292 336.908 85.6875C336.241 86.6042 335.908 87.9792 335.908 89.8125C335.908 91.6042 336.241 92.9792 336.908 93.9375C337.574 94.8958 338.366 95.5417 339.283 95.875C340.241 96.2083 341.095 96.375 341.845 96.375C342.637 96.375 343.491 96.2083 344.408 95.875C345.324 95.5417 346.116 94.8958 346.783 93.9375C347.449 92.9792 347.783 91.6042 347.783 89.8125C347.783 87.9792 347.449 86.6042 346.783 85.6875C346.116 84.7292 345.324 84.0833 344.408 83.75C343.491 83.4167 342.637 83.25 341.845 83.25Z" fill="black"/>
<path d="M216.84 73V106.75H206.09V81.75H200.902V73H216.84Z" fill="black"/>
<path fill-rule="evenodd" clip-rule="evenodd" d="M212.5 0.875C211.5 0.291667 210.396 0 209.188 0C207.396 0 205.833 0.625 204.5 1.875C203.167 3.125 202.5 4.66667 202.5 6.5C202.5 8.29167 203.167 9.83333 204.5 11.125C205.833 12.375 207.396 13 209.188 13C210.396 13 211.5 12.7083 212.5 12.125C213.542 11.5417 214.375 10.75 215 9.75C215.625 8.75 215.938 7.66667 215.938 6.5C215.938 5.29167 215.625 4.20833 215 3.25C214.375 2.25 213.542 1.45833 212.5 0.875ZM215.25 49.75V17.875H199.312V26.625H204.5V49.75H205.416C206.188 47.9841 207.95 46.75 210 46.75C212.05 46.75 213.812 47.9841 214.584 49.75H215.25Z" fill="black"/>
</svg>
